# File created by Blade
# Date/Time:  Mon Sep 22 16:09:39 2014
# Frame Rate: 120.000 fps
#------------------------------------------------------
:FULLY-SPECIFIED
:DEGREES
2488
root 2.585757 36.988456 2.896712 3.749386 -5.875011 1.239637
RightUpLeg 4.890602 -3.568189 -2.299339
RightLeg -5.428925 -0.000000 0.000000
RightFoot -12.984617 -15.153898 16.218311
RightToeBase 14.403732 -0.000000 -0.000000
LeftUpLeg 3.640791 3.356425 1.877745
LeftLeg -2.767727 -0.000000 0.000000
LeftFoot -10.764514 13.969761 -17.280030
LeftToeBase 9.655351 -0.000000 -0.000000
Spine -4.733293 -11.259627 1.715226
RightShoulder -7.779252 -21.127777 0.520239
RightArm 20.296838 45.955596 100.325430
RightForeArm 85.615529 0.000000 85.961006
RightHand 18.298371 -0.000000 -15.780794
RightHandThumb1 -24.326973 -0.000000 -32.862282
LeftShoulder -28.307254 40.295001 -3.899642
LeftArm 40.789063 16.160719 -69.373631
LeftForeArm 19.754139 -0.000000 27.322314
LeftHand -13.337354 -0.000000 -9.543387
LeftHandThumb1 -26.253704 0.000000 33.147579
Head 13.439436 7.876748 10.010547
2489
root 2.583766 36.988977 2.899180 3.755647 -5.883457 1.241463
RightUpLeg 4.887702 -3.570300 -2.297692
RightLeg -5.430990 -0.000000 0.000000
RightFoot -12.970205 -15.159215 16.200209
RightToeBase 14.432189 -0.000000 -0.000000
LeftUpLeg 3.640827 3.362336 1.875609
LeftLeg -2.771934 -0.000000 0.000000
LeftFoot -10.762661 13.983225 -17.294891
LeftToeBase 9.615378 -0.000000 -0.000000
Spine -4.749336 -11.293281 1.714459
RightShoulder -7.772181 -21.157139 0.519379
RightArm 20.337072 45.982661 100.346018
RightForeArm 85.592720 -0.000000 86.172866
RightHand 18.556766 -0.000000 -15.702405
RightHandThumb1 -24.326973 -0.000000 -32.862282
LeftShoulder -28.323012 40.273935 -3.907262
LeftArm 40.784462 16.131940 -69.367912
LeftForeArm 19.785133 -0.000000 27.340511
LeftHand -13.278556 -0.000000 -9.762646
LeftHandThumb1 -26.253704 0.000000 33.147579
Head 13.424058 7.894577 9.993997
2490
root 2.582734 36.989679 2.900384 3.765371 -5.886887 1.249141
RightUpLeg 4.876495 -3.555410 -2.301513
RightLeg -5.428790 -0.000000 0.000000
RightFoot -12.980434 -15.163501 16.227417
RightToeBase 14.392623 -0.000000 -0.000000
LeftUpLeg 3.628019 3.365112 1.869485
LeftLeg -2.761820 -0.000000 0.000000
LeftFoot -10.754966 13.971724 -17.303943
LeftToeBase 9.669834 -0.000000 -0.000000
Spine -4.775352 -11.319935 1.700400
RightShoulder -7.758369 -21.185305 0.510299
RightArm 20.369027 46.026356 100.374650
RightForeArm 85.835121 0.000000 86.394620
RightHand 18.757277 -0.000000 -15.378333
RightHandThumb1 -24.326973 -0.000000 -32.862282
LeftShoulder -28.302478 40.268356 -3.879558
LeftArm 40.764354 16.090848 -69.398930
LeftForeArm 19.839117 -0.000000 27.392609
LeftHand -13.377777 -0.000000 -9.782351
LeftHandThumb1 -26.253704 0.000000 33.147579
Head 13.432684 7.879083 9.992744
2491
root 2.581068 36.989716 2.902327 3.770442 -5.890327 1.250893
RightUpLeg 4.871866 -3.553122 -2.300654
RightLeg -5.424411 -0.000000 0.000000
RightFoot -12.983448 -15.172665 16.223485
RightToeBase 14.385736 -0.000000 -0.000000
LeftUpLeg 3.625175 3.355624 1.867312
LeftLeg -2.761287 -0.000000 0.000000
LeftFoot -10.765939 14.002631 -17.295689
LeftToeBase 9.611064 -0.000000 -0.000000
Spine -4.794001 -11.345208 1.691674
RightShoulder -7.753629 -21.197788 0.496938
RightArm 20.360020 46.074347 100.388917
RightForeArm 85.962157 -0.000000 86.633746
RightHand 18.745445 0.000000 -15.365972
RightHandThumb1 -24.326973 -0.000000 -32.862282
LeftShoulder -28.305676 40.267945 -3.874001
LeftArm 40.764922 16.058355 -69.403360
LeftForeArm 19.837679 0.000000 27.444153
LeftHand -13.400983 0.000000 -9.827038
LeftHandThumb1 -26.253704 0.000000 33.147579
Head 13.435611 7.869994 9.993238
2492
root 2.579706 36.989275 2.904703 3.768745 -5.896551 1.247458
RightUpLeg 4.876725 -3.535341 -2.295812
RightLeg -5.423610 -0.000000 0.000000
RightFoot -12.982283 -15.172081 16.224935
RightToeBase 14.372786 -0.000000 -0.000000
LeftUpLeg 3.631384 3.366913 1.871009
LeftLeg -2.759214 -0.000000 0.000000
LeftFoot -10.764596 13.997764 -17.277641
LeftToeBase 9.670220 -0.000000 -0.000000
Spine -4.805005 -11.341843 1.690879
RightShoulder -7.785609 -21.222371 0.497687
RightArm 20.402279 46.143957 100.444340
RightForeArm 86.058484 -0.000000 86.899275
RightHand 18.700450 0.000000 -15.119963
RightHandThumb1 -24.326973 -0.000000 -32.862282
LeftShoulder -28.268690 40.274345 -3.843789
LeftArm 40.760794 16.015443 -69.428336
LeftForeArm 19.773956 -0.000000 27.495379
LeftHand -13.373108 -0.000000 -9.892824
LeftHandThumb1 -26.253704 0.000000 33.147579
Head 13.442481 7.844377 9.991001
2493
root 2.578141 36.989288 2.904503 3.771219 -5.900307 1.248287
RightUpLeg 4.866008 -3.515374 -2.295205
RightLeg -5.407472 -0.000000 0.000000
RightFoot -13.000076 -15.177501 16.249534
RightToeBase 14.393628 -0.000000 -0.000000
LeftUpLeg 3.631639 3.355163 1.870553
LeftLeg -2.765341 -0.000000 0.000000
LeftFoot -10.762895 14.017378 -17.299952
LeftToeBase 9.585353 -0.000000 -0.000000
Spine -4.815434 -11.393922 1.682017
RightShoulder -7.754497 -21.229012 0.487446
RightArm 20.422294 46.227486 100.484244
RightForeArm 86.054547 0.000000 87.149607
RightHand 18.807881 -0.000000 -14.467113
RightHandThumb1 -24.326973 -0.000000 -32.862282
LeftShoulder -28.297503 40.274301 -3.855717
LeftArm 40.754576 15.967522 -69.452420
LeftForeArm 19.701278 -0.000000 27.555644
LeftHand -13.383786 0.000000 -9.741585
LeftHandThumb1 -26.253704 0.000000 33.147579
Head 13.456424 7.876695 10.003620
2494
root 2.576853 36.988964 2.910564 3.775669 -5.898905 1.248946
RightUpLeg 4.881175 -3.499758 -2.294603
RightLeg -5.425884 -0.000000 0.000000
RightFoot -12.986385 -15.198320 16.206401
RightToeBase 14.330518 -0.000000 -0.000000
LeftUpLeg 3.644263 3.349331 1.871717
LeftLeg -2.780204 -0.000000 0.000000
LeftFoot -10.766251 14.022142 -17.299711
LeftToeBase 9.604542 -0.000000 -0.000000
Spine -4.849759 -11.412612 1.680539
RightShoulder -7.790188 -21.225994 0.497074
RightArm 20.432968 46.321107 100.520879
RightForeArm 85.871983 -0.000000 87.496734
RightHand 18.792440 -0.000000 -14.432257
RightHandThumb1 -24.326973 -0.000000 -32.862282
LeftShoulder -28.300433 40.282814 -3.857045
LeftArm 40.739167 15.941405 -69.466042
LeftForeArm 19.649094 -0.000000 27.619079
LeftHand -13.365051 -0.000000 -9.738538
LeftHandThumb1 -26.253704 0.000000 33.147579
Head 13.486944 7.865501 10.013904
2495
root 2.576632 36.988456 2.911292 3.775775 -5.896469 1.246963
RightUpLeg 4.879097 -3.477327 -2.291535
RightLeg -5.417714 -0.000000 0.000000
RightFoot -13.000582 -15.216945 16.214147
RightToeBase 14.352316 -0.000000 -0.000000
LeftUpLeg 3.643092 3.342958 1.873079
LeftLeg -2.775543 -0.000000 0.000000
LeftFoot -10.780271 14.024087 -17.314240
LeftToeBase 9.681372 -0.000000 -0.000000
Spine -4.854115 -11.422363 1.671279
RightShoulder -7.806923 -21.192632 0.523649
RightArm 20.415737 46.472513 100.540354
RightForeArm 85.673164 -0.000000 87.908840
RightHand 18.944580 -0.000000 -13.889095
RightHandThumb1 -24.326973 -0.000000 -32.862282
LeftShoulder -28.277123 40.255151 -3.825091
LeftArm 40.707605 15.915009 -69.500270
LeftForeArm 19.620229 -0.000000 27.680912
LeftHand -13.369962 -0.000000 -9.771243
LeftHandThumb1 -26.253704 0.000000 33.147579
Head 13.486984 7.851666 10.041522
2496
root 2.575461 36.988150 2.917888 3.778430 -5.889524 1.248086
RightUpLeg 4.892346 -3.475297 -2.290638
RightLeg -5.427705 -0.000000 0.000000
RightFoot -13.018307 -15.219686 16.248892
RightToeBase 14.381254 -0.000000 -0.000000
LeftUpLeg 3.653728 3.349345 1.875530
LeftLeg -2.782359 -0.000000 0.000000
LeftFoot -10.783631 14.006732 -17.319597
LeftToeBase 9.712290 -0.000000 -0.000000
Spine -4.889961 -11.445535 1.668782
RightShoulder -7.808831 -21.149763 0.616504
RightArm 20.385981 46.695182 100.537355
RightForeArm 85.147292 -0.000000 88.619529
RightHand 19.055431 -0.000000 -14.451955
RightHandThumb1 -24.326973 -0.000000 -32.862282
LeftShoulder -28.259845 40.254161 -3.815210
LeftArm 40.654798 15.879748 -69.534527
LeftForeArm 19.622367 -0.000000 27.773433
LeftHand -13.382699 -0.000000 -9.744486
LeftHandThumb1 -26.253704 0.000000 33.147579
Head 13.520334 7.845634 10.060088
